<svg width="95" height="89" xmlns="http://www.w3.org/2000/svg" xmlns:xlink="http://www.w3.org/1999/xlink" xml:space="preserve" overflow="hidden"><defs><clipPath id="clip0"><rect x="1071" y="557" width="95" height="89"/></clipPath><linearGradient x1="974.753" y1="748.624" x2="975.106" y2="748.624" gradientUnits="userSpaceOnUse" spreadMethod="pad" id="fill1"><stop offset="0" stop-color="#D03727"/><stop offset="1" stop-color="#9E1D21"/></linearGradient><linearGradient x1="972.815" y1="748.624" x2="973.168" y2="748.624" gradientUnits="userSpaceOnUse" spreadMethod="pad" id="fill2"><stop offset="0" stop-color="#D03727"/><stop offset="1" stop-color="#9E1D21"/></linearGradient><linearGradient x1="974.753" y1="751.555" x2="975.106" y2="751.555" gradientUnits="userSpaceOnUse" spreadMethod="pad" id="fill3"><stop offset="0" stop-color="#D03727"/><stop offset="1" stop-color="#9E1D21"/></linearGradient><linearGradient x1="972.815" y1="751.555" x2="973.168" y2="751.555" gradientUnits="userSpaceOnUse" spreadMethod="pad" id="fill4"><stop offset="0" stop-color="#D03727"/><stop offset="1" stop-color="#9E1D21"/></linearGradient><clipPath id="clip5"><path d="M1143.7 579.427C1135.04 579.427 1127.84 584.015 1121.71 593.444L1124.19 595.064C1129.74 586.535 1136.12 582.393 1143.7 582.393 1154.35 582.393 1162.98 591.021 1162.98 601.664 1162.98 612.307 1154.35 620.935 1143.7 620.935 1136.12 620.935 1129.74 616.794 1124.22 608.31L1115.29 593.449C1109.16 584.02 1101.96 579.432 1093.3 579.432L1071.06 579.432 1071.06 582.398 1082.22 582.398C1071.58 588.506 1067.9 602.085 1074.01 612.728 1075.97 616.145 1078.8 618.979 1082.22 620.94L1082.21 620.94C1082.44 621.073 1082.68 621.201 1082.91 621.329L1082.91 623.906 1093.3 623.906C1101.96 623.906 1109.16 619.319 1115.3 609.89L1112.81 608.269C1107.26 616.794 1100.88 620.94 1093.3 620.94 1082.65 620.94 1074.03 612.312 1074.03 601.669 1074.03 591.026 1082.65 582.398 1093.3 582.398 1100.88 582.398 1107.26 586.54 1112.78 595.023L1121.7 609.894C1127.84 619.328 1135.04 623.91 1143.7 623.91L1165.94 623.91 1165.94 620.944 1154.78 620.944C1165.42 614.839 1169.1 601.262 1162.99 590.619 1161.03 587.199 1158.2 584.363 1154.77 582.402L1154.79 582.402C1154.56 582.264 1154.32 582.131 1154.08 582.003L1154.08 579.432 1143.7 579.432Z"/></clipPath><radialGradient cx="0.5" cy="0.499" r="1.068" gradientUnits="userSpaceOnUse" spreadMethod="pad" id="fill6" gradientTransform="matrix(44.5016 0 0 -41.0972 1019.53 907.227)"><stop offset="0" stop-color="#D03727"/><stop offset="0.368" stop-color="#CD3627"/><stop offset="0.603" stop-color="#C53126"/><stop offset="0.801" stop-color="#B62924"/><stop offset="0.977" stop-color="#A11F21"/><stop offset="1" stop-color="#9E1D21"/></radialGradient></defs><g clip-path="url(#clip0)" transform="translate(-1071 -557)"><path d="M1093.29 612.22C1087.46 612.22 1082.74 607.495 1082.74 601.666 1082.74 595.837 1087.46 591.112 1093.29 591.112L1093.29 591.464C1087.66 591.52 1083.14 596.133 1083.19 601.767 1083.25 607.322 1087.74 611.812 1093.29 611.867L1093.29 612.22M1093.29 615.186C1085.83 615.186 1079.77 609.133 1079.77 601.666 1079.77 594.199 1085.83 588.146 1093.29 588.146 1100.76 588.146 1106.81 594.199 1106.81 601.666 1106.81 609.13 1100.76 615.178 1093.29 615.186L1093.29 614.839C1100.57 614.846 1106.48 608.951 1106.49 601.672 1106.5 594.393 1100.6 588.485 1093.32 588.478 1086.04 588.47 1080.13 594.365 1080.13 601.645 1080.12 605.145 1081.51 608.503 1083.99 610.978 1086.45 613.451 1089.8 614.841 1093.29 614.839L1093.29 615.186" fill="#AEA7B5"/><path d="M1074.05 572.923 1077.02 572.923 1077.02 575.889 1074.05 575.889Z" fill="#C5C0CA"/><path d="M1079.94 572.923 1082.91 572.923 1082.91 575.889 1079.94 575.889Z" fill="#9E1D21"/><path d="M1085.83 572.923 1088.8 572.923 1088.8 575.889 1085.83 575.889Z" fill="#C5C0CA"/><path d="M1091.83 572.923 1094.79 572.923 1094.79 575.889 1091.83 575.889Z" fill="#9E1D21"/><path d="M1097.72 572.923 1100.68 572.923 1100.68 575.889 1097.72 575.889Z" fill="#C5C0CA"/><g><path d="M1103.71 572.923 1106.67 572.923 1106.67 575.889 1103.71 575.889Z" fill="url(#fill1)"/></g><path d="M1109.6 572.923 1112.56 572.923 1112.56 575.889 1109.6 575.889Z" fill="#C5C0CA"/><path d="M1115.49 572.923 1118.46 572.923 1118.46 575.889 1115.49 575.889Z" fill="#D03727"/><path d="M1121.48 572.923 1124.45 572.923 1124.45 575.889 1121.48 575.889Z" fill="#C5C0CA"/><path d="M1127.37 572.923 1130.34 572.923 1130.34 575.889 1127.37 575.889Z" fill="#D03727"/><path d="M1133.36 572.923 1136.33 572.923 1136.33 575.889 1133.36 575.889Z" fill="#C5C0CA"/><g><path d="M1139.26 572.923 1142.22 572.923 1142.22 575.889 1139.26 575.889Z" fill="url(#fill2)"/></g><path d="M1145.15 572.923 1148.11 572.923 1148.11 575.889 1145.15 575.889Z" fill="#C5C0CA"/><path d="M1151.14 572.923 1154.1 572.923 1154.1 575.889 1151.14 575.889Z" fill="#9E1D21"/><path d="M1157.03 572.923 1159.99 572.923 1159.99 575.889 1157.03 575.889Z" fill="#C5C0CA"/><path d="M1163.02 572.923 1165.99 572.923 1165.99 575.889 1163.02 575.889Z" fill="#9E1D21"/><path d="M1074.05 627.449 1077.02 627.449 1077.02 630.414 1074.05 630.414Z" fill="#C5C0CA"/><path d="M1079.94 627.449 1082.91 627.449 1082.91 630.414 1079.94 630.414Z" fill="#9E1D21"/><path d="M1085.83 627.449 1088.8 627.449 1088.8 630.414 1085.83 630.414Z" fill="#C5C0CA"/><path d="M1091.83 627.449 1094.79 627.449 1094.79 630.414 1091.83 630.414Z" fill="#9E1D21"/><path d="M1097.72 627.449 1100.68 627.449 1100.68 630.414 1097.72 630.414Z" fill="#C5C0CA"/><g><path d="M1103.71 627.449 1106.67 627.449 1106.67 630.414 1103.71 630.414Z" fill="url(#fill3)"/></g><path d="M1109.6 627.449 1112.56 627.449 1112.56 630.414 1109.6 630.414Z" fill="#C5C0CA"/><path d="M1115.49 627.449 1118.46 627.449 1118.46 630.414 1115.49 630.414Z" fill="#D03727"/><path d="M1121.48 627.449 1124.45 627.449 1124.45 630.414 1121.48 630.414Z" fill="#C5C0CA"/><path d="M1127.37 627.449 1130.34 627.449 1130.34 630.414 1127.37 630.414Z" fill="#D03727"/><path d="M1133.36 627.449 1136.33 627.449 1136.33 630.414 1133.36 630.414Z" fill="#C5C0CA"/><g><path d="M1139.26 627.449 1142.22 627.449 1142.22 630.414 1139.26 630.414Z" fill="url(#fill4)"/></g><path d="M1145.15 627.449 1148.11 627.449 1148.11 630.414 1145.15 630.414Z" fill="#C5C0CA"/><path d="M1151.14 627.449 1154.1 627.449 1154.1 630.414 1151.14 630.414Z" fill="#9E1D21"/><path d="M1157.03 627.449 1159.99 627.449 1159.99 630.414 1157.03 630.414Z" fill="#C5C0CA"/><path d="M1163.02 627.449 1165.99 627.449 1165.99 630.414 1163.02 630.414Z" fill="#9E1D21"/><path d="M1072.52 560.426C1072.56 558.523 1074.12 557 1076.02 557 1076.81 556.996 1077.59 557.257 1078.22 557.742 1078.44 557.93 1078.49 558.263 1078.32 558.504 1078.13 558.737 1077.79 558.781 1077.55 558.604 1077.12 558.259 1076.58 558.075 1076.02 558.082 1075.38 558.086 1074.77 558.331 1074.31 558.767 1073.86 559.205 1073.61 559.801 1073.61 560.424 1073.61 561.048 1073.86 561.645 1074.31 562.08 1074.77 562.518 1075.38 562.763 1076.02 562.765 1076.58 562.775 1077.12 562.591 1077.55 562.244 1077.79 562.08 1078.12 562.123 1078.31 562.344 1078.48 562.585 1078.44 562.917 1078.21 563.106 1077.58 563.591 1076.81 563.852 1076.01 563.848 1074.11 563.849 1072.56 562.324 1072.53 560.422" fill="#231F20"/><path d="M1089.75 558.018C1091.03 559.364 1091.03 561.479 1089.75 562.825 1089.17 563.466 1088.34 563.834 1087.48 563.843 1086.6 563.838 1085.75 563.47 1085.15 562.825 1083.89 561.469 1083.89 559.375 1085.15 558.018 1085.75 557.368 1086.59 556.998 1087.48 557 1088.35 557.007 1089.17 557.377 1089.75 558.018M1089.62 560.427C1089.62 559.812 1089.39 559.219 1088.98 558.765 1088.22 557.925 1086.92 557.861 1086.08 558.621 1086.03 558.667 1085.98 558.715 1085.94 558.765 1085.52 559.217 1085.29 559.811 1085.29 560.427 1085.29 561.041 1085.52 561.634 1085.93 562.082 1086.68 562.923 1087.96 563.001 1088.8 562.258 1088.86 562.203 1088.92 562.144 1088.98 562.082 1089.39 561.631 1089.62 561.039 1089.62 560.426" fill="#231F20"/><path d="M1097.97 563.326C1097.97 563.611 1097.74 563.842 1097.45 563.842 1097.17 563.842 1096.94 563.611 1096.94 563.326L1096.94 557.793C1096.93 557.621 1097.01 557.456 1097.15 557.353 1097.38 557.189 1097.7 557.239 1097.87 557.466L1100.94 561.716 1100.94 557.803C1100.94 557.521 1101.17 557.291 1101.45 557.287 1101.74 557.289 1101.97 557.518 1101.97 557.803L1101.97 563.326C1101.97 563.613 1101.74 563.845 1101.45 563.847 1101.3 563.844 1101.16 563.775 1101.07 563.658L1101.02 563.602 1097.98 559.378 1097.98 563.326Z" fill="#231F20"/><path d="M1112.75 558.248 1111.24 558.248 1111.24 563.326C1111.24 563.614 1111.01 563.847 1110.72 563.847 1110.43 563.847 1110.2 563.614 1110.2 563.326L1110.2 558.248 1108.69 558.248C1108.4 558.245 1108.17 558.008 1108.17 557.717 1108.17 557.717 1108.17 557.716 1108.17 557.716 1108.17 557.432 1108.39 557.199 1108.68 557.195 1108.68 557.195 1108.69 557.195 1108.69 557.195L1112.75 557.195C1113.04 557.194 1113.27 557.427 1113.27 557.714 1113.27 557.715 1113.27 557.715 1113.27 557.716 1113.28 558.006 1113.04 558.244 1112.75 558.248" fill="#231F20"/><path d="M1119.47 557.716C1119.47 557.432 1119.7 557.199 1119.98 557.195 1119.99 557.195 1119.99 557.195 1120 557.195 1120.29 557.193 1120.52 557.426 1120.53 557.716L1120.53 563.326C1120.52 563.616 1120.29 563.85 1120 563.847 1120 563.847 1120 563.847 1120 563.847 1119.71 563.852 1119.48 563.628 1119.47 563.346 1119.47 563.339 1119.47 563.332 1119.47 563.326Z" fill="#231F20"/><path d="M1127.89 563.326C1127.88 563.609 1127.66 563.839 1127.37 563.847 1127.09 563.849 1126.86 563.619 1126.85 563.333 1126.85 563.331 1126.85 563.328 1126.85 563.326L1126.85 557.793C1126.85 557.621 1126.92 557.456 1127.06 557.353 1127.29 557.189 1127.61 557.239 1127.78 557.466L1130.86 561.716 1130.86 557.803C1130.86 557.521 1131.09 557.291 1131.37 557.287 1131.65 557.291 1131.88 557.519 1131.89 557.803L1131.89 563.326C1131.89 563.613 1131.66 563.845 1131.37 563.847 1131.22 563.844 1131.08 563.775 1130.98 563.658L1130.93 563.602 1127.89 559.378Z" fill="#231F20"/><path d="M1141.01 563.848C1139.5 563.849 1138.27 562.623 1138.27 561.108 1138.27 561.106 1138.27 561.104 1138.27 561.102L1138.27 557.716C1138.26 557.432 1138.49 557.199 1138.77 557.195 1138.78 557.195 1138.78 557.195 1138.79 557.195 1139.08 557.193 1139.32 557.426 1139.32 557.716L1139.32 561.101C1139.39 562.036 1140.21 562.735 1141.14 562.663 1141.98 562.599 1142.64 561.936 1142.7 561.101L1142.7 557.716C1142.7 557.429 1142.94 557.196 1143.22 557.195 1143.23 557.195 1143.23 557.195 1143.24 557.195 1143.52 557.191 1143.75 557.418 1143.76 557.702 1143.76 557.707 1143.76 557.711 1143.76 557.716L1143.76 561.101C1143.76 562.616 1142.53 563.845 1141.02 563.847 1141.02 563.847 1141.01 563.847 1141.01 563.847" fill="#231F20"/><path d="M1153.48 562.277 1151.17 562.277 1150.71 563.514C1150.62 563.717 1150.43 563.848 1150.21 563.847 1150.15 563.847 1150.08 563.837 1150.03 563.816 1149.75 563.711 1149.62 563.406 1149.72 563.131L1151.81 557.531C1151.9 557.326 1152.1 557.194 1152.32 557.199 1152.54 557.191 1152.74 557.324 1152.83 557.531L1154.92 563.131C1155.02 563.406 1154.88 563.71 1154.61 563.816 1154.55 563.838 1154.49 563.848 1154.43 563.847 1154.22 563.85 1154.02 563.717 1153.95 563.514ZM1153.09 561.234 1152.32 559.189 1151.55 561.234Z" fill="#231F20"/><path d="M1160.89 563.326 1160.89 557.716C1160.89 557.429 1161.12 557.195 1161.41 557.195 1161.41 557.195 1161.41 557.195 1161.41 557.195 1161.7 557.193 1161.94 557.426 1161.95 557.716L1161.95 562.793 1164.52 562.793C1164.81 562.801 1165.04 563.037 1165.04 563.326 1165.04 563.611 1164.81 563.842 1164.52 563.847L1161.41 563.847C1161.12 563.845 1160.89 563.612 1160.89 563.326" fill="#231F20"/><path d="M1072.3 645.468 1072.3 639.858C1072.29 639.575 1072.52 639.341 1072.8 639.337 1072.81 639.337 1072.81 639.337 1072.82 639.337L1075.93 639.337C1076.21 639.34 1076.44 639.572 1076.45 639.858 1076.45 640.148 1076.22 640.384 1075.93 640.39L1073.35 640.39 1073.35 642.133 1075.56 642.133C1075.85 642.146 1076.08 642.391 1076.07 642.682 1076.05 642.956 1075.84 643.174 1075.56 643.186L1073.35 643.186 1073.35 644.929 1075.93 644.929C1076.21 644.937 1076.44 645.172 1076.45 645.461 1076.44 645.746 1076.21 645.977 1075.93 645.982L1072.83 645.982 1072.82 645.992C1072.53 645.992 1072.3 645.758 1072.3 645.471 1072.3 645.469 1072.3 645.468 1072.3 645.466" fill="#231F20"/><path d="M1090.71 645.469C1090.71 645.754 1090.48 645.985 1090.2 645.985 1089.91 645.985 1089.68 645.754 1089.68 645.469L1089.68 639.936C1089.67 639.651 1089.89 639.411 1090.17 639.398 1090.34 639.39 1090.51 639.469 1090.61 639.609L1093.68 643.858 1093.68 639.941C1093.69 639.658 1093.91 639.43 1094.19 639.425 1094.48 639.428 1094.71 639.656 1094.72 639.941L1094.72 645.464C1094.71 645.751 1094.48 645.983 1094.19 645.985 1094.04 645.982 1093.9 645.913 1093.81 645.795L1093.76 645.739 1090.72 641.521 1090.72 645.469Z" fill="#231F20"/><path d="M1108.02 642.579C1108.04 640.666 1109.61 639.129 1111.52 639.148 1111.52 639.148 1111.53 639.148 1111.53 639.148 1112.31 639.146 1113.08 639.408 1113.7 639.89 1113.94 640.069 1113.99 640.408 1113.81 640.65 1113.63 640.891 1113.29 640.942 1113.05 640.764 1113.04 640.759 1113.04 640.754 1113.03 640.749 1112.6 640.414 1112.07 640.233 1111.53 640.233 1110.89 640.222 1110.27 640.474 1109.82 640.932 1108.91 641.788 1108.86 643.22 1109.72 644.13 1109.75 644.163 1109.78 644.196 1109.82 644.227 1110.27 644.684 1110.89 644.937 1111.53 644.926 1111.99 644.921 1112.44 644.795 1112.83 644.562L1112.83 643.258 1111.47 643.258C1111.17 643.256 1110.93 643.014 1110.93 642.716 1110.93 642.423 1111.17 642.185 1111.46 642.184 1111.46 642.184 1111.47 642.184 1111.47 642.184L1113.37 642.184C1113.66 642.175 1113.91 642.407 1113.92 642.704 1113.92 642.708 1113.92 642.712 1113.92 642.716L1113.92 644.813C1113.91 644.869 1113.9 644.923 1113.89 644.977L1113.87 645.022 1113.87 645.032C1113.83 645.126 1113.77 645.206 1113.69 645.262 1113.07 645.742 1112.31 646.004 1111.53 646.004 1109.62 646.027 1108.05 644.496 1108.02 642.583" fill="#231F20"/><path d="M1127.9 639.858C1127.9 639.575 1128.13 639.341 1128.41 639.337 1128.41 639.337 1128.42 639.337 1128.42 639.337 1128.71 639.335 1128.95 639.568 1128.96 639.858L1128.96 645.468C1128.95 645.758 1128.71 645.992 1128.42 645.989 1128.42 645.989 1128.42 645.989 1128.42 645.989 1128.14 645.995 1127.91 645.77 1127.9 645.488 1127.9 645.481 1127.9 645.475 1127.9 645.468Z" fill="#231F20"/><path d="M1143.64 645.469C1143.64 645.754 1143.41 645.985 1143.13 645.985 1142.84 645.985 1142.61 645.754 1142.61 645.469L1142.61 639.936C1142.6 639.763 1142.68 639.599 1142.82 639.497 1143.05 639.332 1143.37 639.383 1143.54 639.61L1146.61 643.859 1146.61 639.942C1146.62 639.659 1146.84 639.431 1147.13 639.426 1147.41 639.429 1147.64 639.657 1147.65 639.942L1147.65 645.465C1147.64 645.752 1147.41 645.984 1147.13 645.986 1146.97 645.983 1146.83 645.914 1146.74 645.796L1146.69 645.74 1143.65 641.522 1143.65 645.469Z" fill="#231F20"/><path d="M1161.05 645.468 1161.05 639.858C1161.05 639.575 1161.28 639.341 1161.56 639.337 1161.56 639.337 1161.57 639.337 1161.57 639.337L1164.69 639.337C1164.97 639.34 1165.21 639.572 1165.21 639.858 1165.21 640.148 1164.98 640.384 1164.69 640.39L1162.11 640.39 1162.11 642.133 1164.32 642.133C1164.62 642.146 1164.84 642.391 1164.83 642.682 1164.82 642.956 1164.6 643.174 1164.32 643.186L1162.11 643.186 1162.11 644.929 1164.69 644.929C1164.98 644.937 1165.21 645.172 1165.21 645.461 1165.2 645.746 1164.97 645.977 1164.69 645.982L1161.6 645.982 1161.58 645.972 1161.57 645.982C1161.3 645.99 1161.06 645.769 1161.05 645.489 1161.05 645.482 1161.05 645.474 1161.05 645.466" fill="#231F20"/><path d="M1143.67 591.291 1143.67 591.291 1143.67 588.325 1143.67 588.325C1136.3 588.325 1130.32 594.3 1130.32 601.671 1130.32 609.042 1136.3 615.017 1143.67 615.017L1143.67 615.017 1143.67 612.05 1143.67 612.05C1138.58 612.046 1134.24 608.354 1133.43 603.331L1143.63 603.331 1143.63 600.015 1133.43 600.015C1134.24 594.989 1138.58 591.295 1143.67 591.291" fill="#222829"/><path d="M1093.26 612.047 1093.26 612.047C1087.53 611.888 1083.01 607.111 1083.17 601.378 1083.33 595.869 1087.76 591.439 1093.26 591.286L1093.26 591.286 1093.26 588.32 1093.26 588.32C1085.89 588.32 1079.92 594.295 1079.92 601.666 1079.92 609.037 1085.89 615.012 1093.26 615.012L1093.26 615.012Z" fill="#222829"/><path d="M1143.73 615.186 1143.55 615.186 1143.55 615.011 1143.73 615.011 1143.73 612.046 1143.9 612.046 1143.9 614.833C1151.17 614.743 1157 608.775 1156.91 601.503 1156.82 594.357 1151.05 588.586 1143.9 588.498L1143.9 591.285 1143.72 591.285 1143.72 588.319 1143.55 588.319 1143.55 588.151 1143.72 588.151C1151.19 588.214 1157.19 594.317 1157.13 601.782 1157.06 609.157 1151.1 615.121 1143.73 615.186" fill="#A3A1A2"/><path d="M1143.73 591.291 1143.56 591.291 1143.56 588.325 1143.73 588.325 1143.73 591.291M1143.73 615.012 1143.56 615.012 1143.56 612.05 1143.73 612.05 1143.73 615.015" fill="#23292A"/><path d="M1157.03 579.427 1159.99 579.427 1159.99 582.393 1157.03 582.393Z" fill="#9E1D21"/><path d="M1163.02 579.427 1165.99 579.427 1165.99 582.393 1163.02 582.393Z" fill="#C5C0CA"/><path d="M1071.06 620.944 1074.02 620.944 1074.02 623.91 1071.06 623.91Z" fill="#C5C0CA"/><path d="M1076.95 620.944 1079.91 620.944 1079.91 623.91 1076.95 623.91Z" fill="#9E1D21"/><g clip-path="url(#clip5)"><path d="M1071.06 579.427 1165.94 579.427 1165.94 623.905 1071.06 623.905Z" fill="url(#fill6)"/></g></g></svg>